<?xml version="1.0" standalone="no"?>
<!DOCTYPE svg PUBLIC "-//W3C//DTD SVG 20010904//EN"
 "http://www.w3.org/TR/2001/REC-SVG-20010904/DTD/svg10.dtd">
<svg version="1.0" xmlns="http://www.w3.org/2000/svg"
 width="118.000000pt" height="118.000000pt" viewBox="0 0 118.000000 118.000000"
 preserveAspectRatio="xMidYMid meet">
<metadata>
Created by potrace 1.11, written by Peter Selinger 2001-2013
</metadata>
<g transform="translate(0.000000,118.000000) scale(0.100000,-0.100000)"
fill="#000000" stroke="none">
<path d="M551 1027 c-8 -8 -5 -17 6 -31 10 -12 11 -15 3 -8 -8 6 -22 12 -32
12 -18 0 -22 -9 -18 -45 3 -33 18 -40 40 -20 20 18 20 18 21 -6 0 -22 1 -23 9
-4 9 20 9 20 9 -1 1 -11 -4 -25 -11 -32 -8 -8 -8 -12 -1 -12 20 0 35 28 27 52
-7 23 -6 23 14 5 27 -25 42 -14 42 29 0 26 -4 34 -18 34 -10 0 -23 -4 -30 -10
-9 -7 -9 -7 -2 2 21 25 11 47 -20 46 -16 -1 -34 -6 -39 -11z m48 -23 c-9 -11
-15 -12 -26 -2 -13 10 -12 13 4 19 25 9 36 0 22 -17z m-50 -50 c-24 -29 -30
-17 -20 35 1 2 8 -2 16 -9 12 -10 13 -16 4 -26z m94 6 c3 -11 2 -20 -3 -20
-12 0 -31 26 -23 33 11 12 21 7 26 -13z"/>
<path d="M500 902 c0 -5 12 -15 28 -22 26 -13 25 -14 -38 -21 -68 -9 -95 0
-71 24 11 10 14 10 18 0 3 -7 11 -13 20 -13 8 0 13 6 11 13 -3 6 -18 12 -34
12 -24 0 -29 -4 -29 -25 0 -17 7 -26 23 -30 23 -5 23 -5 -7 -28 -34 -25 -81
-30 -81 -8 0 21 17 28 24 10 3 -8 10 -13 15 -9 18 10 -1 36 -23 33 -15 -2 -21
-10 -21 -28 0 -21 5 -26 30 -28 20 -2 39 4 55 18 13 11 29 19 36 16 7 -3 14 4
17 15 6 23 68 27 86 5 10 -12 6 -14 -29 -12 -29 2 -43 -1 -47 -11 -3 -8 -13
-11 -23 -8 -10 3 -21 1 -25 -5 -3 -5 -1 -10 6 -10 7 0 2 -11 -10 -24 -13 -14
-29 -22 -37 -19 -8 3 -14 0 -14 -6 0 -6 5 -11 11 -11 5 0 3 -10 -6 -22 -8 -13
-20 -23 -25 -23 -6 0 -9 -4 -8 -10 2 -5 5 -9 8 -8 3 1 4 -13 2 -32 -3 -28 -7
-32 -25 -27 -13 3 -18 1 -14 -4 5 -5 14 -9 20 -9 6 0 15 -17 19 -38 9 -41 27
-81 34 -74 2 2 -3 20 -11 40 -19 47 -19 108 1 155 20 50 72 102 102 102 13 0
21 4 18 8 -3 5 1 9 9 9 8 0 15 -4 15 -9 0 -4 5 -8 11 -8 5 0 8 4 5 9 -3 5 1
12 10 15 11 4 15 2 11 -7 -4 -10 5 -14 29 -15 19 -1 34 2 34 7 0 4 7 8 15 8 8
0 12 -4 9 -9 -3 -4 5 -8 18 -8 52 -1 108 -78 115 -159 5 -53 -8 -102 -44 -161
-2 -3 8 -6 22 -6 25 -2 35 11 14 18 -7 2 -7 12 2 31 9 21 17 26 33 22 20 -6
20 -5 3 8 -20 16 -20 70 0 63 7 -3 13 1 13 9 0 8 -5 14 -11 13 -7 -2 -15 9
-19 24 -5 17 -4 27 2 25 6 -1 13 4 16 12 3 9 0 12 -10 9 -9 -4 -21 5 -32 23
-15 25 -15 28 -1 23 8 -4 15 -1 15 6 0 7 -8 10 -19 7 -25 -6 -53 23 -41 43 7
11 11 11 24 1 8 -7 27 -11 43 -9 22 2 28 8 28 28 0 29 -38 41 -48 16 -4 -10
-1 -16 8 -16 8 0 15 5 15 12 0 9 3 9 11 1 6 -6 8 -16 5 -22 -12 -19 -50 -12
-79 13 l-28 24 23 4 c30 4 37 43 10 57 -25 14 -56 -7 -42 -29 8 -12 10 -12 16
3 8 21 34 23 34 3 0 -23 -12 -26 -81 -17 -47 6 -58 11 -42 16 29 9 39 35 13
35 -19 0 -47 -36 -36 -47 2 -3 -1 -11 -7 -18 -15 -16 -37 -1 -37 24 0 9 -5 22
-12 29 -14 14 -48 16 -48 4z m190 -72 c6 -11 15 -18 20 -15 5 3 12 0 16 -6 5
-8 3 -9 -6 -4 -10 6 -12 3 -7 -11 7 -18 6 -18 -6 -2 -8 10 -17 15 -20 11 -4
-3 -7 1 -7 10 0 14 -7 16 -40 11 -25 -4 -40 -3 -40 4 0 28 75 29 90 2z m-70
-36 c0 -2 -7 -4 -15 -4 -8 0 -15 4 -15 10 0 5 7 7 15 4 8 -4 15 -8 15 -10z"/>
<path d="M570 860 c0 -5 5 -10 10 -10 6 0 10 5 10 10 0 6 -4 10 -10 10 -5 0
-10 -4 -10 -10z"/>
<path d="M418 616 c-2 -49 0 -63 11 -62 17 3 22 126 4 126 -7 0 -13 -24 -15
-64z"/>
<path d="M552 668 c-16 -16 -15 -38 0 -38 7 0 3 -7 -9 -15 -33 -23 -16 -65 22
-55 6 2 22 2 37 1 15 -1 29 3 32 7 3 5 -6 8 -20 6 -22 -2 -24 0 -13 14 7 9 20
23 28 30 13 10 12 12 -8 12 -12 0 -20 -4 -16 -9 3 -5 1 -12 -3 -15 -11 -6 -54
49 -45 58 3 3 12 -2 20 -12 13 -16 14 -16 11 2 -4 24 -20 30 -36 14z m26 -82
c3 -13 -1 -17 -14 -14 -11 2 -20 11 -22 22 -3 13 1 17 14 14 11 -2 20 -11 22
-22z"/>
<path d="M695 672 c-5 -4 -11 -15 -11 -25 -2 -15 1 -16 15 -5 9 7 13 8 9 4 -4
-5 -3 -15 3 -23 9 -10 6 -13 -14 -13 -19 0 -28 -7 -36 -30 -5 -16 -6 -30 -1
-30 5 0 10 10 12 22 2 13 11 24 22 26 20 4 38 -16 32 -33 -2 -6 5 -11 15 -11
11 0 19 1 19 2 0 0 -6 14 -13 30 -8 16 -20 44 -28 61 -8 18 -18 29 -24 25z"/>
<path d="M488 570 c-18 -21 -13 -26 11 -11 7 5 12 14 10 20 -3 7 -11 3 -21 -9z"/>
<path d="M340 530 c0 -5 5 -10 10 -10 6 0 10 5 10 10 0 6 -4 10 -10 10 -5 0
-10 -4 -10 -10z"/>
<path d="M376 473 c-10 -10 4 -22 18 -17 23 9 27 -12 6 -31 -11 -10 -20 -28
-19 -39 1 -19 2 -18 8 3 9 33 37 50 53 32 10 -11 10 -12 1 -7 -8 5 -13 1 -13
-10 0 -13 3 -14 14 -5 49 41 92 -85 47 -140 -17 -21 -21 -22 -37 -9 -18 13
-18 13 -3 -3 38 -42 98 27 85 98 -4 20 -3 35 2 35 18 0 18 -71 1 -110 -21 -46
-50 -64 -93 -57 -28 5 -29 5 -9 -5 32 -15 81 1 107 35 16 22 21 42 20 83 -1
30 2 54 7 54 14 0 11 -134 -3 -148 -9 -9 -9 -18 0 -37 7 -15 10 -31 7 -36 -4
-5 1 -9 10 -9 11 0 15 5 12 14 -3 8 0 22 7 32 11 14 11 22 0 43 -16 31 -19
127 -3 136 16 11 19 2 10 -36 -21 -92 79 -176 145 -123 18 15 18 15 -3 5 -37
-18 -68 -12 -97 17 -31 34 -42 85 -27 126 15 37 23 29 12 -10 -12 -41 8 -95
41 -114 21 -11 30 -12 39 -3 9 9 7 11 -8 7 -42 -11 -64 70 -38 134 13 30 35
44 35 21 0 -5 5 -7 10 -4 6 3 10 11 10 16 0 6 -5 7 -12 3 -7 -4 -8 -3 -4 4 10
17 42 15 60 -4 9 -8 16 -11 16 -5 0 6 -14 18 -31 26 -28 15 -32 15 -49 0 -69
-62 -200 -56 -273 13 -27 26 -51 35 -61 25z"/>
<path d="M308 404 c36 -25 23 -74 -20 -74 -17 0 -23 12 -18 35 1 6 -4 4 -12
-3 -29 -29 35 -69 68 -42 29 25 5 100 -32 100 -4 0 2 -7 14 -16z"/>
<path d="M950 413 c26 -10 50 -35 50 -53 0 -20 -57 -66 -100 -82 -40 -13 -89
-4 -136 28 l-39 25 27 -25 c15 -13 25 -27 22 -30 -2 -3 -1 -4 2 -2 3 2 35 -9
70 -26 52 -24 72 -29 102 -23 20 3 46 8 56 9 21 3 28 21 28 76 1 55 65 94 105
65 16 -13 17 -15 2 -30 -19 -20 -53 -10 -44 14 5 12 4 13 -6 4 -10 -10 -9 -15
1 -28 33 -39 105 1 78 44 -7 11 -20 22 -29 24 -25 7 -69 -4 -69 -16 0 -6 -3
-7 -6 -4 -4 3 -15 2 -25 -4 -15 -8 -25 -4 -46 16 -15 14 -35 25 -43 24 -13 0
-13 -1 0 -6z m60 -105 c0 -42 -60 -74 -117 -63 l-38 7 50 13 c27 7 56 22 65
32 15 20 40 27 40 11z"/>
<path d="M16 391 c-19 -21 -20 -43 -4 -59 25 -25 78 -8 78 25 0 7 -4 13 -10
13 -5 0 -7 -6 -4 -14 7 -18 -9 -28 -30 -20 -21 8 -21 40 0 48 16 6 78 -15 87
-30 3 -5 6 -29 8 -54 2 -42 29 -90 51 -90 5 0 -1 10 -14 23 -13 12 -16 15 -5
7 10 -8 36 -14 58 -15 47 0 53 -15 7 -16 -18 0 -27 -3 -20 -6 20 -8 88 7 74
16 -9 5 -4 11 13 19 36 17 55 14 25 -3 -14 -8 -20 -14 -15 -14 16 -1 40 17 40
30 0 7 6 14 14 17 9 3 11 0 6 -8 -5 -9 -4 -11 4 -6 6 4 9 12 6 17 -5 8 7 13
26 11 3 -1 6 5 6 12 0 10 -10 9 -41 -5 -70 -32 -122 -20 -180 40 -23 24 -26
32 -17 50 7 12 17 21 23 21 6 0 8 3 5 7 -4 3 -18 -4 -31 -16 -23 -22 -45 -24
-58 -7 -6 9 -19 13 -65 21 -12 2 -29 -5 -37 -14z m169 -77 c8 2 19 -3 27 -12
12 -16 11 -16 -7 -3 -19 14 -19 14 -3 -3 9 -10 38 -24 64 -31 l48 -12 -36 -7
c-63 -12 -118 23 -117 74 1 18 3 20 6 7 3 -10 11 -16 18 -13z"/>
<path d="M840 389 c-25 -45 12 -89 60 -74 20 6 29 49 12 59 -5 3 -8 -5 -8 -17
1 -16 -6 -23 -22 -25 -26 -4 -45 33 -30 61 5 9 6 17 4 17 -3 0 -10 -9 -16 -21z"/>
<path d="M400 374 c0 -8 5 -12 10 -9 6 3 10 10 10 16 0 5 -4 9 -10 9 -5 0 -10
-7 -10 -16z"/>
<path d="M750 382 c0 -14 11 -21 26 -15 21 8 17 23 -6 23 -11 0 -20 -4 -20 -8z"/>
<path d="M453 293 c-7 -3 -13 -9 -13 -14 0 -6 5 -7 11 -3 6 3 15 0 20 -7 7
-11 9 -11 9 3 0 20 -10 27 -27 21z"/>
<path d="M694 289 c-3 -6 -1 -16 6 -22 10 -9 11 -9 6 1 -4 7 -1 12 8 12 9 0
16 -5 16 -12 0 -6 3 -8 6 -5 8 7 -14 37 -27 37 -4 0 -11 -5 -15 -11z"/>
<path d="M807 246 c30 -23 100 -46 132 -45 19 1 14 4 -15 9 -22 5 -58 16 -80
26 -59 27 -61 27 -37 10z"/>
<path d="M980 220 c-9 -6 -10 -10 -3 -10 6 0 15 5 18 10 8 12 4 12 -15 0z"/>
</g>
</svg>
