<svg width="36" height="35" viewBox="0 0 36 35" fill="none" xmlns="http://www.w3.org/2000/svg">
<path d="M18.1233 30.3546L13.6332 34.8501C9.34023 30.5554 5.05013 26.2578 0.758865 21.9607C6.20718 16.5064 11.6549 11.0515 17.1032 5.59662L18.1233 6.61735C13.0148 11.732 7.90634 16.8467 2.79786 21.9607L13.6326 32.8086L17.1038 29.3338L18.1233 30.3546Z" fill="#1A1A1A"/>
<path d="M34.1093 14.3468C29.1205 19.3416 24.1317 24.3365 19.1423 29.3319L18.1228 28.3106C22.9417 23.4859 27.7606 18.6611 32.5801 13.8364L21.7453 2.98796L19.1423 5.59418L18.1228 4.57345L21.7453 0.945923C26.0354 5.24468 30.3278 9.53938 34.6197 13.8364L34.1093 14.3468Z" fill="#1A1A1A"/>
<path d="M7.28755 17.4633L22.2408 32.4352L33.0755 21.5873L29.9766 18.484L30.9967 17.4633L35.1145 21.5873L22.2413 34.4772L6.26747 18.4846L7.28755 17.4633Z" fill="#1A1A1A"/>
<path d="M28.9584 17.4639L14.1294 2.61625L3.29467 13.4637L6.26994 16.4426L5.24987 17.4639L1.25568 13.4637L14.1294 0.574768L29.9785 16.4426L28.9584 17.4639Z" fill="#1A1A1A"/>
</svg>
